<?xml version="1.0" encoding="UTF-8"?>
<svg width="192" height="192" viewBox="0 0 192 192" xmlns="http://www.w3.org/2000/svg" role="img" aria-label="Icono de televisión">
  <!-- Fondo blanco -->
  <rect width="192" height="192" rx="0" ry="0" fill="#FFFFFF"/>

  <!-- Sombra sutil para dar profundidad -->
  <defs>
    <filter id="shadow" x="-20%" y="-20%" width="140%" height="140%">
      <feDropShadow dx="0" dy="4" stdDeviation="6" flood-color="#000" flood-opacity="0.18"/>
    </filter>
  </defs>

  <!-- Cuerpo del televisor -->
  <g transform="translate(26,44)" filter="url(#shadow)">
    <!-- Marco exterior -->
    <rect x="0" y="0" width="140" height="90" rx="12" ry="12" fill="#2E2E2E"/>

    <!-- Bisel interior -->
    <rect x="8" y="8" width="124" height="74" rx="8" ry="8" fill="#111111"/>

    <!-- Pantalla -->
    <rect x="12" y="12" width="116" height="66" rx="6" ry="6" fill="#0A7FD0" opacity="0.95"/>

    <!-- Brillo sutil -->
    <path d="M18 20 C48 10, 88 10, 118 20 L118 42 C88 32, 48 32, 18 42 Z" fill="#ffffff" opacity="0.06"/>

    <!-- Botones -->
    <g transform="translate(8,76)">
      <rect x="0" y="0" width="6" height="4" rx="1" fill="#1b1b1b"/>
      <rect x="10" y="0" width="6" height="4" rx="1" fill="#1b1b1b"/>
      <rect x="20" y="0" width="6" height="4" rx="1" fill="#1b1b1b"/>
    </g>

    <!-- Base -->
    <rect x="50" y="94" width="40" height="6" rx="2" ry="2" fill="#2E2E2E"/>

    <!-- Antena -->
    <g stroke="#2E2E2E" stroke-width="4" stroke-linecap="round" fill="none" transform="translate(70, -10)">
      <line x1="0" y1="18" x2="-20" y2="-12"/>
      <line x1="0" y1="18" x2="20" y2="-12"/>
    </g>
  </g>
</svg>
